<svg width="400" height="400" viewBox="0 0 400 400" fill="none" xmlns="http://www.w3.org/2000/svg">
<g clip-path="url(#clip0_6_163)">
<path d="M12 256.312C7.0312 204.125 36.7812 162.719 61.9999 146.031C87.7812 128.969 99.8124 126.531 105.625 123.25C132.406 108.187 151.25 74.5937 187.25 49.8125C228.219 21.625 284.25 17.4375 318.625 36.2812C349.969 53.4687 382.094 90.9062 373.5 165.437C364.906 239.969 177.656 362.625 145.531 364.375C113.406 366.125 19.5 335.188 12 256.312V256.312Z" fill="#B8885A"/>
<path d="M220.75 239.656C206.031 248.281 150.75 303.062 87.3125 301.562C23.875 300.062 14.125 269.406 14.125 269.406C14.125 269.406 23.2187 322.844 66.9687 354.5C116.469 390.312 168.969 376.219 184.281 372.781C207 367.687 227.062 357.25 247.156 346.344C267.25 335.437 338.687 301.031 366.75 246.875C397.719 187.125 390.344 139.25 374.875 104.437C358.5 67.5937 342.531 54.0625 342.531 54.0625C342.531 54.0625 357.406 131.219 325.906 174.156C281.219 235.062 235.469 231.031 220.75 239.656V239.656Z" fill="#875B52"/>
<path d="M202.226 313.343C202.414 317.28 216.445 316.968 226.632 315.311C237.414 313.561 246.32 313.405 247.82 309.249C249.32 305.093 232.882 290.624 223.195 291.124C217.132 291.468 201.945 307.593 202.226 313.343Z" fill="#513531"/>
<path d="M263.536 285.782C260.072 287.036 262.335 296.614 265.544 300.754C268.752 304.894 275.605 310.412 278.059 308.085C280.513 305.757 282.574 297.801 278.771 292.6C274.931 287.422 267 284.528 263.536 285.782Z" fill="#513531"/>
<path d="M366.406 119.625C363 113.625 356.906 127.813 356.625 132.719C356.344 137.625 360.031 140.5 364.125 141.375C368.156 142.219 377.344 138.906 366.406 119.625V119.625Z" fill="#513531"/>
<path d="M220.836 258.657C218.086 263.313 222.617 266.688 227.211 269.813C230.836 272.282 239.711 273.595 241.461 270.845C243.242 268.095 239.742 264.376 233.117 258.813C228.586 255.032 223.586 254.001 220.836 258.657Z" fill="#513531"/>
<path d="M54.3751 263.25C50.4688 265.969 53.6251 278.031 54.1563 280.344C54.6876 282.656 70.2501 283.469 72.5626 279.906C74.8751 276.344 70.0001 271.188 66.5626 267.594C63.1251 264.031 58.2813 260.531 54.3751 263.25Z" fill="#875B52"/>
<path d="M82.1874 235.156C86.9999 241.688 95.7187 233.844 97.1249 228C98.6249 221.719 93.3437 217.625 87.3749 221.344C82.5937 224.281 79.3749 231.375 82.1874 235.156Z" fill="#875B52"/>
<path d="M144.438 110.813C138.188 108.188 135.813 113.688 133.469 119.25C131.125 124.813 123.563 134.938 128.313 136.344C133.063 137.75 144.25 137.094 147.031 132.563C149.813 128 150.688 113.469 144.438 110.813V110.813Z" fill="#875B52"/>
<path d="M37.7188 248.375C44.5938 251.469 55.2813 236.844 60.1875 229.813C67.4063 219.469 78.2813 206.406 103.75 190.625C138.688 169 175.156 174.438 193.906 158.156C212.656 141.875 223.531 109.594 237.844 93.5938C264 64.3438 291.156 84.3125 294.938 70.1563C298.719 56 279.344 43.9687 256.469 44C233.625 44.0625 207.5 52.4687 183.75 90.875C160 129.281 154.094 141.031 132.063 147.969C110.031 154.938 82.6563 164.125 56.2813 193.469C41.625 209.781 26.25 243.219 37.7188 248.375V248.375Z" fill="#D9AC82"/>
<path d="M258.656 105.688C260 115.688 273.75 121.125 281.844 121.219C289.437 121.313 294.906 116.375 294.812 111.344C294.719 105.313 284.906 102.531 281.062 101.031C273.531 98.125 271.781 91.8125 264.75 94.0625C258.375 96.125 258.469 104.156 258.656 105.688Z" fill="#875B52"/>
</g>
<defs>
<clipPath id="clip0_6_163">
<rect width="400" height="400" fill="white"/>
</clipPath>
</defs>
</svg>
